# This file uses centimeters as units for non-parametric coordinates.

mtllib Object.mtl
g default
v 0.086081 0.086081 0.086081
v 0.086081 -0.086081 0.086081
v -0.086081 -0.086081 0.086081
v -0.086081 0.086081 0.086081
v 0.086081 0.086081 -0.086081
v 0.086081 -0.086081 -0.086081
v -0.086081 -0.086081 -0.086081
v -0.086081 0.086081 -0.086081
v 0.000000 0.000000 0.149097
v 0.000000 0.000000 -0.149097
v 0.000000 -0.149097 0.000000
v 0.000000 0.149097 0.000000
v -0.149097 0.000000 0.000000
v 0.149097 0.000000 0.000000
vt 0.625000 0.695913
vt 0.625000 0.304087
vt 0.375000 0.304087
vt 0.375000 0.695913
vt 0.875000 0.695913
vt 0.875000 0.304087
vt 0.125000 0.304087
vt 0.125000 0.695913
vt 0.500000 0.500000
vt 1.000000 0.500000
vt 0.500000 1.000000
vt 0.500000 1.000000
vt 0.250000 0.500000
vt 0.750000 0.500000
vt 1.125000 0.695913
vt 1.125000 0.304087
vn 0.000000 0.707107 0.707107
vn 0.000000 0.707107 0.707107
vn 0.000000 0.590690 0.806898
vn -0.707107 0.000000 0.707107
vn -0.707107 0.000000 0.707107
vn -0.590690 0.000000 0.806898
vn 0.000000 -0.707107 0.707107
vn 0.000000 -0.707107 0.707107
vn 0.000000 -0.590690 0.806898
vn 0.707107 0.000000 0.707107
vn 0.707107 0.000000 0.707107
vn 0.590690 0.000000 0.806898
vn 0.000000 0.707107 -0.707107
vn 0.000000 0.707107 -0.707107
vn 0.000000 0.590690 -0.806898
vn 0.707107 0.000000 -0.707107
vn 0.707107 0.000000 -0.707107
vn 0.590690 0.000000 -0.806898
vn 0.000000 -0.707107 -0.707107
vn 0.000000 -0.707107 -0.707107
vn 0.000000 -0.590690 -0.806898
vn -0.707107 0.000000 -0.707107
vn -0.707107 0.000000 -0.707107
vn -0.590690 0.000000 -0.806898
vn -0.707107 -0.707107 0.000000
vn -0.707107 -0.707107 0.000000
vn -0.590690 -0.806898 0.000000
vn 0.000000 -0.806898 -0.590690
vn 0.707107 -0.707107 0.000000
vn 0.707107 -0.707107 0.000000
vn 0.590690 -0.806898 0.000000
vn 0.000000 -0.806898 0.590690
vn 0.707107 0.707107 0.000000
vn 0.707107 0.707107 0.000000
vn 0.590690 0.806898 0.000000
vn 0.000000 0.806898 -0.590690
vn -0.707107 0.707107 0.000000
vn -0.707107 0.707107 0.000000
vn -0.590690 0.806898 0.000000
vn 0.000000 0.806898 0.590690
vn -0.806898 0.000000 0.590690
vn -0.806898 0.590690 0.000000
vn -0.806898 0.000000 -0.590690
vn -0.806898 -0.590690 0.000000
vn 0.806898 -0.590690 0.000000
vn 0.806898 0.000000 -0.590690
vn 0.806898 0.590690 0.000000
vn 0.806898 0.000000 0.590690
s 1
g pPlatonic2
usemtl initialShadingGroup
f 1/1/1 4/4/2 9/9/3
s 2
f 4/4/4 3/3/5 9/9/6
s 3
f 3/3/7 2/2/8 9/9/9
s 4
f 2/2/10 1/1/11 9/9/12
s 5
f 8/15/13 5/5/14 10/10/15
s 6
f 5/5/16 6/6/17 10/10/18
s 7
f 6/6/19 7/16/20 10/10/21
s 8
f 7/16/22 8/15/23 10/10/24
s 9
f 3/3/25 7/7/26 11/11/27
s 7
f 7/16/20 6/6/19 11/11/28
s 10
f 6/6/29 2/2/30 11/11/31
s 3
f 2/2/8 3/3/7 11/11/32
s 11
f 1/1/33 5/5/34 12/12/35
s 5
f 5/5/14 8/15/13 12/12/36
s 12
f 8/8/37 4/4/38 12/12/39
s 1
f 4/4/2 1/1/1 12/12/40
s 2
f 3/3/5 4/4/4 13/13/41
s 12
f 4/4/38 8/8/37 13/13/42
s 8
f 8/8/23 7/7/22 13/13/43
s 9
f 7/7/26 3/3/25 13/13/44
s 10
f 2/2/30 6/6/29 14/14/45
s 6
f 6/6/17 5/5/16 14/14/46
s 11
f 5/5/34 1/1/33 14/14/47
s 4
f 1/1/11 2/2/10 14/14/48
