# This file uses centimeters as units for non-parametric coordinates.

mtllib Pen.mtl
g default
v -0.081266 -0.104194 -0.081237
v -0.067516 -0.095026 -0.080673
v -0.118637 -0.048842 -0.069933
v -0.104887 -0.039673 -0.069369
v -0.127673 -0.026820 -0.207635
v -0.113923 -0.017651 -0.207071
v -0.090302 -0.082172 -0.218939
v -0.076552 -0.073004 -0.218375
vt 0.375000 0.000000
vt 0.625000 0.000000
vt 0.375000 0.250000
vt 0.625000 0.250000
vt 0.375000 0.500000
vt 0.625000 0.500000
vt 0.375000 0.750000
vt 0.625000 0.750000
vt 0.375000 1.000000
vt 0.625000 1.000000
vt 0.875000 0.000000
vt 0.875000 0.250000
vt 0.125000 0.000000
vt 0.125000 0.250000
vn 0.064661 -0.157588 0.985386
vn 0.064661 -0.157588 0.985386
vn 0.064661 -0.157588 0.985386
vn 0.064661 -0.157588 0.985386
vn -0.551714 0.817166 0.166889
vn -0.551714 0.817166 0.166889
vn -0.551714 0.817166 0.166889
vn -0.551714 0.817166 0.166889
vn -0.064661 0.157588 -0.985386
vn -0.064661 0.157588 -0.985386
vn -0.064661 0.157588 -0.985386
vn -0.064661 0.157588 -0.985386
vn 0.551714 -0.817166 -0.166889
vn 0.551714 -0.817166 -0.166889
vn 0.551714 -0.817166 -0.166889
vn 0.551714 -0.817166 -0.166889
vn 0.831523 0.554442 0.034104
vn 0.831523 0.554442 0.034104
vn 0.831523 0.554442 0.034104
vn 0.831523 0.554442 0.034104
vn -0.831523 -0.554442 -0.034104
vn -0.831523 -0.554442 -0.034104
vn -0.831523 -0.554442 -0.034104
vn -0.831523 -0.554442 -0.034104
s 1
g pCube1 pen
usemtl initialShadingGroup
f 1/1/1 2/2/2 3/3/3
f 3/3/3 2/2/2 4/4/4
s 2
f 3/3/5 4/4/6 5/5/7
f 5/5/7 4/4/6 6/6/8
s 3
f 5/5/9 6/6/10 7/7/11
f 7/7/11 6/6/10 8/8/12
s 4
f 7/7/13 8/8/14 1/9/15
f 1/9/15 8/8/14 2/10/16
s 5
f 2/2/17 8/11/18 4/4/19
f 4/4/19 8/11/18 6/12/20
s 6
f 7/13/21 1/1/22 5/14/23
f 5/14/23 1/1/22 3/3/24
g default
v 0.000000 0.000000 0.872575
v 0.115905 0.000000 0.113673
v 0.000000 0.107178 0.113673
v -0.115905 0.000000 0.113673
v 0.000000 -0.105099 0.113673
v 0.081957 0.090764 0.113673
v 0.081957 0.000000 0.650298
v 0.000000 0.090764 0.650298
v -0.081957 0.090764 0.113673
v -0.081957 0.000000 0.650298
v -0.081957 -0.090764 0.113673
v 0.000000 -0.090764 0.650298
v 0.081957 -0.090764 0.113673
v 0.000000 0.090764 -0.422951
v 0.081957 0.000000 -0.422951
v -0.081957 0.000000 -0.422951
v 0.000000 -0.090764 -0.422951
vt 0.500000 0.500000
vt 0.750000 0.500000
vt 0.500000 1.000000
vt 0.250000 0.500000
vt 0.500000 1.000000
vt 0.750000 0.750000
vt 0.625000 0.500000
vt 0.500000 0.750000
vt 0.250000 0.750000
vt 0.375000 0.500000
vt 0.250000 0.250000
vt 0.500000 0.250000
vt 0.750000 0.250000
vt 1.000000 0.750000
vt 0.875000 0.500000
vt 0.125000 0.500000
vt 1.000000 0.250000
vt 1.125000 0.500000
vt 1.250000 0.750000
vt 1.250000 0.250000
vn 0.934990 0.349708 0.059149
vn 0.715197 0.694044 0.082435
vn 0.812099 0.570186 0.124030
vn 0.196292 0.980087 0.029979
vn 0.609216 0.783362 0.123287
vn 0.715875 0.646414 0.263955
vn -0.196292 0.980087 0.029979
vn -0.715197 0.694044 0.082435
vn -0.609216 0.783362 0.123287
vn -0.934990 0.349708 0.059149
vn -0.812099 0.570186 0.124030
vn -0.715875 0.646414 0.263955
vn -0.934990 -0.349708 0.059149
vn -0.712585 -0.696791 0.081885
vn -0.812099 -0.570186 0.124030
vn -0.172233 -0.984705 0.026305
vn -0.605206 -0.786533 0.122848
vn -0.715875 -0.646414 0.263955
vn 0.715875 -0.646414 0.263955
vn 0.605206 -0.786533 0.122848
vn 0.812099 -0.570186 0.124030
vn 0.172233 -0.984705 0.026305
vn 0.712585 -0.696791 0.081885
vn 0.934990 -0.349708 0.059149
vn 0.578929 0.810570 -0.088418
vn 0.196292 0.980087 -0.029979
vn 0.715197 0.694044 -0.082435
vn 0.829208 0.551113 -0.093215
vn 0.934990 0.349708 -0.059149
vn -0.829208 0.551113 -0.093215
vn -0.934990 0.349708 -0.059149
vn -0.715197 0.694044 -0.082435
vn -0.578929 0.810570 -0.088418
vn -0.196292 0.980087 -0.029979
vn -0.573593 -0.814442 -0.087603
vn -0.172233 -0.984705 -0.026305
vn -0.712585 -0.696791 -0.081885
vn -0.829208 -0.551113 -0.093215
vn -0.934990 -0.349708 -0.059149
vn 0.829208 -0.551113 -0.093215
vn 0.934990 -0.349708 -0.059149
vn 0.712585 -0.696791 -0.081885
vn 0.573593 -0.814442 -0.087603
vn 0.172233 -0.984705 -0.026305
vn 0.000000 0.000000 -1.000000
vn 0.000000 0.000000 -1.000000
vn 0.000000 0.000000 -1.000000
vn 0.000000 0.000000 -1.000000
s 1
g pen pPlatonic1
usemtl initialShadingGroup
f 10/16/25 14/20/26 15/21/27
f 14/20/26 11/17/28 16/22/29
f 14/20/26 16/22/29 15/21/27
f 15/21/27 16/22/29 9/15/30
s 2
f 11/17/31 17/23/32 16/22/33
f 17/23/32 12/18/34 18/24/35
f 17/23/32 18/24/35 16/22/33
f 16/22/33 18/24/35 9/15/36
s 3
f 12/18/37 19/25/38 18/24/39
f 19/25/38 13/19/40 20/26/41
f 19/25/38 20/26/41 18/24/39
f 18/24/39 20/26/41 9/15/42
s 4
f 9/15/43 20/26/44 15/21/45
f 20/26/44 13/19/46 21/27/47
f 20/26/44 21/27/47 15/21/45
f 15/21/45 21/27/47 10/16/48
s 5
f 22/28/49 11/17/50 14/20/51
f 22/28/49 14/20/51 23/29/52
f 23/29/52 14/20/51 10/16/53
s 6
f 24/30/54 12/18/55 17/23/56
f 24/32/54 17/33/56 22/28/57
f 22/28/57 17/33/56 11/17/58
s 7
f 25/31/59 13/19/60 19/34/61
f 25/31/59 19/34/61 24/32/62
f 24/30/62 19/25/61 12/18/63
s 8
f 23/29/64 10/16/65 21/27/66
f 23/29/64 21/27/66 25/31/67
f 25/31/67 21/27/66 13/19/68
s 9
f 23/29/69 25/31/70 22/28/71
f 22/28/71 25/31/70 24/32/72
